<mxfile host="app.diagrams.net" modified="2023-11-07T00:39:24.287Z" agent="Mozilla/5.0 (Windows NT 10.0; Win64; x64) AppleWebKit/537.36 (KHTML, like Gecko) Chrome/119.0.0.0 Safari/537.36" etag="CF92Ly4r1DvPbYLdQiIa" version="22.0.8" type="device">
  <diagram id="C5RBs43oDa-KdzZeNtuy" name="Page-1">
    <mxGraphModel dx="3585" dy="2000" grid="1" gridSize="10" guides="1" tooltips="1" connect="1" arrows="1" fold="1" page="1" pageScale="1" pageWidth="827" pageHeight="1169" math="0" shadow="0">
      <root>
        <mxCell id="WIyWlLk6GJQsqaUBKTNV-0" />
        <mxCell id="WIyWlLk6GJQsqaUBKTNV-1" parent="WIyWlLk6GJQsqaUBKTNV-0" />
        <mxCell id="h5JnKGwBCNfKR0X9zzU7-0" value="" style="group" vertex="1" connectable="0" parent="WIyWlLk6GJQsqaUBKTNV-1">
          <mxGeometry x="284" y="70" width="260" height="80" as="geometry" />
        </mxCell>
        <mxCell id="h5JnKGwBCNfKR0X9zzU7-1" value="" style="group;shadow=1;" vertex="1" connectable="0" parent="h5JnKGwBCNfKR0X9zzU7-0">
          <mxGeometry width="260" height="80" as="geometry" />
        </mxCell>
        <mxCell id="h5JnKGwBCNfKR0X9zzU7-2" value="" style="shape=hexagon;perimeter=hexagonPerimeter2;whiteSpace=wrap;html=1;fixedSize=1;size=20;" vertex="1" parent="h5JnKGwBCNfKR0X9zzU7-1">
          <mxGeometry width="260" height="80" as="geometry" />
        </mxCell>
        <mxCell id="h5JnKGwBCNfKR0X9zzU7-3" value="" style="endArrow=none;html=1;rounded=0;entryX=1;entryY=0.5;entryDx=0;entryDy=0;" edge="1" parent="h5JnKGwBCNfKR0X9zzU7-1" target="h5JnKGwBCNfKR0X9zzU7-2">
          <mxGeometry width="50" height="50" relative="1" as="geometry">
            <mxPoint y="39.860000000000014" as="sourcePoint" />
            <mxPoint x="173.33333333333331" y="39.860000000000014" as="targetPoint" />
          </mxGeometry>
        </mxCell>
        <mxCell id="h5JnKGwBCNfKR0X9zzU7-4" value="void main" style="text;strokeColor=none;align=center;fillColor=none;html=1;verticalAlign=middle;whiteSpace=wrap;rounded=0;fontSize=12;fontFamily=Helvetica;fontColor=default;" vertex="1" parent="h5JnKGwBCNfKR0X9zzU7-1">
          <mxGeometry x="65" y="10" width="130" height="10" as="geometry" />
        </mxCell>
        <mxCell id="h5JnKGwBCNfKR0X9zzU7-5" value="" style="endArrow=none;html=1;rounded=0;fontFamily=Helvetica;fontSize=12;fontColor=default;exitX=0.375;exitY=1;exitDx=0;exitDy=0;movable=0;resizable=0;rotatable=0;deletable=0;editable=0;locked=1;connectable=0;" edge="1" parent="h5JnKGwBCNfKR0X9zzU7-0" source="h5JnKGwBCNfKR0X9zzU7-2">
          <mxGeometry width="50" height="50" relative="1" as="geometry">
            <mxPoint x="43.33333333333333" y="100" as="sourcePoint" />
            <mxPoint x="97.5" y="40" as="targetPoint" />
          </mxGeometry>
        </mxCell>
        <mxCell id="h5JnKGwBCNfKR0X9zzU7-6" value="Vuelo" style="swimlane;whiteSpace=wrap;html=1;" vertex="1" parent="WIyWlLk6GJQsqaUBKTNV-1">
          <mxGeometry x="256" y="180" width="316" height="190" as="geometry" />
        </mxCell>
        <mxCell id="h5JnKGwBCNfKR0X9zzU7-7" value="int ciudad_origen" style="whiteSpace=wrap;html=1;" vertex="1" parent="h5JnKGwBCNfKR0X9zzU7-6">
          <mxGeometry x="93" y="30" width="120" height="30" as="geometry" />
        </mxCell>
        <mxCell id="h5JnKGwBCNfKR0X9zzU7-8" value="float costo" style="whiteSpace=wrap;html=1;" vertex="1" parent="h5JnKGwBCNfKR0X9zzU7-6">
          <mxGeometry x="93" y="110" width="120" height="30" as="geometry" />
        </mxCell>
        <mxCell id="h5JnKGwBCNfKR0X9zzU7-9" value="float distancia" style="whiteSpace=wrap;html=1;" vertex="1" parent="h5JnKGwBCNfKR0X9zzU7-6">
          <mxGeometry x="93" y="150" width="120" height="30" as="geometry" />
        </mxCell>
        <mxCell id="h5JnKGwBCNfKR0X9zzU7-10" value="int ciudad_destino" style="whiteSpace=wrap;html=1;" vertex="1" parent="h5JnKGwBCNfKR0X9zzU7-6">
          <mxGeometry x="93" y="70" width="120" height="30" as="geometry" />
        </mxCell>
        <mxCell id="h5JnKGwBCNfKR0X9zzU7-11" style="edgeStyle=orthogonalEdgeStyle;rounded=0;orthogonalLoop=1;jettySize=auto;html=1;exitX=0.5;exitY=1;exitDx=0;exitDy=0;" edge="1" parent="WIyWlLk6GJQsqaUBKTNV-1" source="h5JnKGwBCNfKR0X9zzU7-2" target="h5JnKGwBCNfKR0X9zzU7-6">
          <mxGeometry relative="1" as="geometry" />
        </mxCell>
        <mxCell id="h5JnKGwBCNfKR0X9zzU7-12" value="Vuelo v_vuelo[50]" style="whiteSpace=wrap;html=1;" vertex="1" parent="WIyWlLk6GJQsqaUBKTNV-1">
          <mxGeometry x="336" y="390" width="156" height="30" as="geometry" />
        </mxCell>
        <mxCell id="h5JnKGwBCNfKR0X9zzU7-13" style="edgeStyle=orthogonalEdgeStyle;rounded=0;orthogonalLoop=1;jettySize=auto;html=1;exitX=0.5;exitY=1;exitDx=0;exitDy=0;entryX=0.5;entryY=0;entryDx=0;entryDy=0;endArrow=none;endFill=0;" edge="1" parent="WIyWlLk6GJQsqaUBKTNV-1" source="h5JnKGwBCNfKR0X9zzU7-14" target="h5JnKGwBCNfKR0X9zzU7-20">
          <mxGeometry relative="1" as="geometry" />
        </mxCell>
        <mxCell id="h5JnKGwBCNfKR0X9zzU7-14" value="int i=49;i&amp;gt;=0;i--" style="swimlane;horizontal=0;whiteSpace=wrap;html=1;rounded=0;" vertex="1" parent="WIyWlLk6GJQsqaUBKTNV-1">
          <mxGeometry x="1105" y="440" width="270" height="220" as="geometry" />
        </mxCell>
        <mxCell id="h5JnKGwBCNfKR0X9zzU7-15" value="ciudad_origen,ciudad_destino, costo,distancia" style="shape=trapezoid;perimeter=trapezoidPerimeter;whiteSpace=wrap;html=1;fixedSize=1;direction=west;rounded=0;" vertex="1" parent="h5JnKGwBCNfKR0X9zzU7-14">
          <mxGeometry x="45" y="10" width="200" height="50" as="geometry" />
        </mxCell>
        <mxCell id="h5JnKGwBCNfKR0X9zzU7-16" value="v_vuelo[i].ciudad_origen = ciudad_origen" style="whiteSpace=wrap;html=1;rounded=0;" vertex="1" parent="h5JnKGwBCNfKR0X9zzU7-14">
          <mxGeometry x="60" y="70" width="170" height="30" as="geometry" />
        </mxCell>
        <mxCell id="h5JnKGwBCNfKR0X9zzU7-17" value="v_vuelo[i].ciudad_destino = ciudad_destino" style="whiteSpace=wrap;html=1;rounded=0;" vertex="1" parent="h5JnKGwBCNfKR0X9zzU7-14">
          <mxGeometry x="60" y="110" width="170" height="30" as="geometry" />
        </mxCell>
        <mxCell id="h5JnKGwBCNfKR0X9zzU7-18" value="v_vuelo[i].costo = costo" style="whiteSpace=wrap;html=1;rounded=0;" vertex="1" parent="h5JnKGwBCNfKR0X9zzU7-14">
          <mxGeometry x="60" y="150" width="170" height="20" as="geometry" />
        </mxCell>
        <mxCell id="h5JnKGwBCNfKR0X9zzU7-19" value="v_vuelo[i].distancia= distancia" style="whiteSpace=wrap;html=1;rounded=0;" vertex="1" parent="h5JnKGwBCNfKR0X9zzU7-14">
          <mxGeometry x="60" y="180" width="170" height="30" as="geometry" />
        </mxCell>
        <mxCell id="h5JnKGwBCNfKR0X9zzU7-20" value="F" style="ellipse;whiteSpace=wrap;html=1;rounded=0;" vertex="1" parent="WIyWlLk6GJQsqaUBKTNV-1">
          <mxGeometry x="1215" y="680" width="50" height="50" as="geometry" />
        </mxCell>
        <mxCell id="h5JnKGwBCNfKR0X9zzU7-21" value="" style="group;rounded=0;" vertex="1" connectable="0" parent="WIyWlLk6GJQsqaUBKTNV-1">
          <mxGeometry x="1060" y="310" width="360" height="90" as="geometry" />
        </mxCell>
        <mxCell id="h5JnKGwBCNfKR0X9zzU7-22" value="" style="group;shadow=1;rounded=0;" vertex="1" connectable="0" parent="h5JnKGwBCNfKR0X9zzU7-21">
          <mxGeometry width="360" height="90.00000000000001" as="geometry" />
        </mxCell>
        <mxCell id="h5JnKGwBCNfKR0X9zzU7-23" value="" style="shape=hexagon;perimeter=hexagonPerimeter2;whiteSpace=wrap;html=1;fixedSize=1;size=20;rounded=0;" vertex="1" parent="h5JnKGwBCNfKR0X9zzU7-22">
          <mxGeometry width="360" height="90.00000000000001" as="geometry" />
        </mxCell>
        <mxCell id="h5JnKGwBCNfKR0X9zzU7-24" value="" style="endArrow=none;html=1;rounded=0;entryX=1;entryY=0.5;entryDx=0;entryDy=0;" edge="1" parent="h5JnKGwBCNfKR0X9zzU7-22" target="h5JnKGwBCNfKR0X9zzU7-23">
          <mxGeometry width="50" height="50" relative="1" as="geometry">
            <mxPoint y="44.84250000000002" as="sourcePoint" />
            <mxPoint x="239.99999999999997" y="44.84250000000002" as="targetPoint" />
          </mxGeometry>
        </mxCell>
        <mxCell id="h5JnKGwBCNfKR0X9zzU7-25" value="Vuelo v_vuelo[50]" style="text;align=center;html=1;verticalAlign=middle;whiteSpace=wrap;rounded=0;fontSize=12;fontFamily=Helvetica;" vertex="1" parent="h5JnKGwBCNfKR0X9zzU7-22">
          <mxGeometry x="130" y="49.09090909090909" width="220" height="33.75" as="geometry" />
        </mxCell>
        <mxCell id="h5JnKGwBCNfKR0X9zzU7-26" value="void fCarga" style="text;align=center;html=1;verticalAlign=middle;whiteSpace=wrap;rounded=0;fontSize=12;fontFamily=Helvetica;" vertex="1" parent="h5JnKGwBCNfKR0X9zzU7-22">
          <mxGeometry x="90" y="16.363636363636363" width="180" height="6.136363636363638" as="geometry" />
        </mxCell>
        <mxCell id="h5JnKGwBCNfKR0X9zzU7-27" value="" style="endArrow=none;html=1;rounded=0;fontFamily=Helvetica;fontSize=12;fontColor=default;exitX=0.375;exitY=1;exitDx=0;exitDy=0;" edge="1" parent="h5JnKGwBCNfKR0X9zzU7-21" source="h5JnKGwBCNfKR0X9zzU7-23">
          <mxGeometry width="50" height="50" relative="1" as="geometry">
            <mxPoint x="59.99999999999999" y="112.5" as="sourcePoint" />
            <mxPoint x="135" y="45.00000000000001" as="targetPoint" />
          </mxGeometry>
        </mxCell>
        <mxCell id="h5JnKGwBCNfKR0X9zzU7-28" style="edgeStyle=orthogonalEdgeStyle;rounded=0;orthogonalLoop=1;jettySize=auto;html=1;exitX=0.5;exitY=1;exitDx=0;exitDy=0;entryX=0.5;entryY=0;entryDx=0;entryDy=0;endArrow=none;endFill=0;" edge="1" parent="WIyWlLk6GJQsqaUBKTNV-1" source="h5JnKGwBCNfKR0X9zzU7-23" target="h5JnKGwBCNfKR0X9zzU7-14">
          <mxGeometry relative="1" as="geometry" />
        </mxCell>
        <mxCell id="h5JnKGwBCNfKR0X9zzU7-29" value="" style="group;rounded=0;" vertex="1" connectable="0" parent="WIyWlLk6GJQsqaUBKTNV-1">
          <mxGeometry x="234" y="450" width="360" height="90" as="geometry" />
        </mxCell>
        <mxCell id="h5JnKGwBCNfKR0X9zzU7-30" value="" style="group;shadow=1;rounded=0;" vertex="1" connectable="0" parent="h5JnKGwBCNfKR0X9zzU7-29">
          <mxGeometry width="360" height="90.00000000000001" as="geometry" />
        </mxCell>
        <mxCell id="h5JnKGwBCNfKR0X9zzU7-31" value="" style="shape=hexagon;perimeter=hexagonPerimeter2;whiteSpace=wrap;html=1;fixedSize=1;size=20;rounded=0;" vertex="1" parent="h5JnKGwBCNfKR0X9zzU7-30">
          <mxGeometry width="360" height="90.00000000000001" as="geometry" />
        </mxCell>
        <mxCell id="h5JnKGwBCNfKR0X9zzU7-32" value="" style="endArrow=none;html=1;rounded=0;entryX=1;entryY=0.5;entryDx=0;entryDy=0;" edge="1" parent="h5JnKGwBCNfKR0X9zzU7-30" target="h5JnKGwBCNfKR0X9zzU7-31">
          <mxGeometry width="50" height="50" relative="1" as="geometry">
            <mxPoint y="44.84250000000002" as="sourcePoint" />
            <mxPoint x="239.99999999999997" y="44.84250000000002" as="targetPoint" />
          </mxGeometry>
        </mxCell>
        <mxCell id="h5JnKGwBCNfKR0X9zzU7-33" value="v_vuelo" style="text;align=center;html=1;verticalAlign=middle;whiteSpace=wrap;rounded=0;fontSize=12;fontFamily=Helvetica;" vertex="1" parent="h5JnKGwBCNfKR0X9zzU7-30">
          <mxGeometry x="130" y="49.09090909090909" width="220" height="33.75" as="geometry" />
        </mxCell>
        <mxCell id="h5JnKGwBCNfKR0X9zzU7-34" value="&amp;nbsp;fCarga" style="text;align=center;html=1;verticalAlign=middle;whiteSpace=wrap;rounded=0;fontSize=12;fontFamily=Helvetica;" vertex="1" parent="h5JnKGwBCNfKR0X9zzU7-30">
          <mxGeometry x="90" y="16.363636363636363" width="180" height="6.136363636363638" as="geometry" />
        </mxCell>
        <mxCell id="h5JnKGwBCNfKR0X9zzU7-35" value="" style="endArrow=none;html=1;rounded=0;fontFamily=Helvetica;fontSize=12;fontColor=default;exitX=0.375;exitY=1;exitDx=0;exitDy=0;" edge="1" parent="h5JnKGwBCNfKR0X9zzU7-29" source="h5JnKGwBCNfKR0X9zzU7-31">
          <mxGeometry width="50" height="50" relative="1" as="geometry">
            <mxPoint x="59.99999999999999" y="112.5" as="sourcePoint" />
            <mxPoint x="135" y="45.00000000000001" as="targetPoint" />
          </mxGeometry>
        </mxCell>
        <mxCell id="h5JnKGwBCNfKR0X9zzU7-36" value="dia != 0" style="swimlane;whiteSpace=wrap;html=1;rounded=0;" vertex="1" parent="WIyWlLk6GJQsqaUBKTNV-1">
          <mxGeometry x="975" y="970" width="520" height="880" as="geometry" />
        </mxCell>
        <mxCell id="h5JnKGwBCNfKR0X9zzU7-37" value="nro_cliente, cod_vuelo,dia,mes, cant_pasajes,nro_vendedor&amp;nbsp;" style="shape=trapezoid;perimeter=trapezoidPerimeter;whiteSpace=wrap;html=1;fixedSize=1;direction=west;rounded=0;" vertex="1" parent="h5JnKGwBCNfKR0X9zzU7-36">
          <mxGeometry x="168.82999999999998" y="810" width="182.37" height="60" as="geometry" />
        </mxCell>
        <mxCell id="h5JnKGwBCNfKR0X9zzU7-39" value="" style="group;rounded=0;" vertex="1" connectable="0" parent="WIyWlLk6GJQsqaUBKTNV-1">
          <mxGeometry x="940" y="750" width="590" height="120" as="geometry" />
        </mxCell>
        <mxCell id="h5JnKGwBCNfKR0X9zzU7-40" value="" style="group;shadow=1;rounded=0;" vertex="1" connectable="0" parent="h5JnKGwBCNfKR0X9zzU7-39">
          <mxGeometry width="590" height="120" as="geometry" />
        </mxCell>
        <mxCell id="h5JnKGwBCNfKR0X9zzU7-41" value="" style="shape=hexagon;perimeter=hexagonPerimeter2;whiteSpace=wrap;html=1;fixedSize=1;size=20;rounded=0;" vertex="1" parent="h5JnKGwBCNfKR0X9zzU7-40">
          <mxGeometry width="590" height="120" as="geometry" />
        </mxCell>
        <mxCell id="h5JnKGwBCNfKR0X9zzU7-42" value="" style="endArrow=none;html=1;rounded=0;entryX=1;entryY=0.5;entryDx=0;entryDy=0;" edge="1" parent="h5JnKGwBCNfKR0X9zzU7-40" target="h5JnKGwBCNfKR0X9zzU7-41">
          <mxGeometry width="50" height="50" relative="1" as="geometry">
            <mxPoint y="59.79000000000002" as="sourcePoint" />
            <mxPoint x="393.3333333333333" y="59.79000000000002" as="targetPoint" />
          </mxGeometry>
        </mxCell>
        <mxCell id="h5JnKGwBCNfKR0X9zzU7-43" value="void fProceso" style="text;align=center;html=1;verticalAlign=middle;whiteSpace=wrap;rounded=0;fontSize=12;fontFamily=Helvetica;" vertex="1" parent="h5JnKGwBCNfKR0X9zzU7-40">
          <mxGeometry x="147.5" y="15" width="295" height="15" as="geometry" />
        </mxCell>
        <mxCell id="h5JnKGwBCNfKR0X9zzU7-44" value="Vuelo v_vuelo[50]" style="text;strokeColor=none;align=center;fillColor=none;html=1;verticalAlign=middle;whiteSpace=wrap;rounded=0;" vertex="1" parent="h5JnKGwBCNfKR0X9zzU7-40">
          <mxGeometry x="340" y="74" width="120" height="30" as="geometry" />
        </mxCell>
        <mxCell id="h5JnKGwBCNfKR0X9zzU7-45" value="" style="endArrow=none;html=1;rounded=0;fontFamily=Helvetica;fontSize=12;fontColor=default;exitX=0.375;exitY=1;exitDx=0;exitDy=0;" edge="1" parent="h5JnKGwBCNfKR0X9zzU7-39" source="h5JnKGwBCNfKR0X9zzU7-41">
          <mxGeometry width="50" height="50" relative="1" as="geometry">
            <mxPoint x="98.33333333333333" y="150" as="sourcePoint" />
            <mxPoint x="221.25" y="60" as="targetPoint" />
          </mxGeometry>
        </mxCell>
        <mxCell id="h5JnKGwBCNfKR0X9zzU7-46" style="edgeStyle=orthogonalEdgeStyle;rounded=0;orthogonalLoop=1;jettySize=auto;html=1;exitX=0.5;exitY=0;exitDx=0;exitDy=0;entryX=0.5;entryY=0;entryDx=0;entryDy=0;endArrow=none;endFill=0;" edge="1" parent="WIyWlLk6GJQsqaUBKTNV-1" source="h5JnKGwBCNfKR0X9zzU7-47" target="h5JnKGwBCNfKR0X9zzU7-36">
          <mxGeometry relative="1" as="geometry" />
        </mxCell>
        <mxCell id="h5JnKGwBCNfKR0X9zzU7-47" value="nro_cliente, cod_vuelo,dia,mes, cant_pasajes,nro_vendedor&amp;nbsp;" style="shape=trapezoid;perimeter=trapezoidPerimeter;whiteSpace=wrap;html=1;fixedSize=1;direction=west;rounded=0;" vertex="1" parent="WIyWlLk6GJQsqaUBKTNV-1">
          <mxGeometry x="1143.82" y="895" width="182.37" height="60" as="geometry" />
        </mxCell>
        <mxCell id="h5JnKGwBCNfKR0X9zzU7-48" style="edgeStyle=orthogonalEdgeStyle;rounded=0;orthogonalLoop=1;jettySize=auto;html=1;exitX=0.5;exitY=1;exitDx=0;exitDy=0;entryX=0.5;entryY=1;entryDx=0;entryDy=0;endArrow=none;endFill=0;" edge="1" parent="WIyWlLk6GJQsqaUBKTNV-1" source="h5JnKGwBCNfKR0X9zzU7-41" target="h5JnKGwBCNfKR0X9zzU7-47">
          <mxGeometry relative="1" as="geometry" />
        </mxCell>
        <mxCell id="h5JnKGwBCNfKR0X9zzU7-49" value="" style="group;rounded=0;" vertex="1" connectable="0" parent="WIyWlLk6GJQsqaUBKTNV-1">
          <mxGeometry x="119" y="560" width="590" height="120" as="geometry" />
        </mxCell>
        <mxCell id="h5JnKGwBCNfKR0X9zzU7-50" value="" style="group;shadow=1;rounded=0;" vertex="1" connectable="0" parent="h5JnKGwBCNfKR0X9zzU7-49">
          <mxGeometry width="590" height="120" as="geometry" />
        </mxCell>
        <mxCell id="h5JnKGwBCNfKR0X9zzU7-51" value="" style="shape=hexagon;perimeter=hexagonPerimeter2;whiteSpace=wrap;html=1;fixedSize=1;size=20;rounded=0;" vertex="1" parent="h5JnKGwBCNfKR0X9zzU7-50">
          <mxGeometry width="590" height="120" as="geometry" />
        </mxCell>
        <mxCell id="h5JnKGwBCNfKR0X9zzU7-52" value="" style="endArrow=none;html=1;rounded=0;entryX=1;entryY=0.5;entryDx=0;entryDy=0;" edge="1" parent="h5JnKGwBCNfKR0X9zzU7-50" target="h5JnKGwBCNfKR0X9zzU7-51">
          <mxGeometry width="50" height="50" relative="1" as="geometry">
            <mxPoint y="59.79000000000002" as="sourcePoint" />
            <mxPoint x="393.3333333333333" y="59.79000000000002" as="targetPoint" />
          </mxGeometry>
        </mxCell>
        <mxCell id="h5JnKGwBCNfKR0X9zzU7-53" value="fProceso" style="text;align=center;html=1;verticalAlign=middle;whiteSpace=wrap;rounded=0;fontSize=12;fontFamily=Helvetica;" vertex="1" parent="h5JnKGwBCNfKR0X9zzU7-50">
          <mxGeometry x="147.5" y="15" width="295" height="15" as="geometry" />
        </mxCell>
        <mxCell id="h5JnKGwBCNfKR0X9zzU7-54" value="v_vuelo" style="text;strokeColor=none;align=center;fillColor=none;html=1;verticalAlign=middle;whiteSpace=wrap;rounded=0;" vertex="1" parent="h5JnKGwBCNfKR0X9zzU7-50">
          <mxGeometry x="340" y="74" width="120" height="30" as="geometry" />
        </mxCell>
        <mxCell id="h5JnKGwBCNfKR0X9zzU7-55" value="" style="endArrow=none;html=1;rounded=0;fontFamily=Helvetica;fontSize=12;fontColor=default;exitX=0.375;exitY=1;exitDx=0;exitDy=0;" edge="1" parent="h5JnKGwBCNfKR0X9zzU7-49" source="h5JnKGwBCNfKR0X9zzU7-51">
          <mxGeometry width="50" height="50" relative="1" as="geometry">
            <mxPoint x="98.33333333333333" y="150" as="sourcePoint" />
            <mxPoint x="221.25" y="60" as="targetPoint" />
          </mxGeometry>
        </mxCell>
      </root>
    </mxGraphModel>
  </diagram>
</mxfile>
